<svg width="108" height="93" viewBox="0 0 108 93" fill="none" xmlns="http://www.w3.org/2000/svg">
<g clip-path="url(#clip0)">
<path d="M48.615 93.0002C65.055 93.0002 78.3823 92.3377 78.3823 91.5205C78.3823 90.7033 65.055 90.0408 48.615 90.0408C32.1749 90.0408 18.8477 90.7033 18.8477 91.5205C18.8477 92.3377 32.1749 93.0002 48.615 93.0002Z" fill="#E6E6E6"/>
<path d="M14.772 29.2251C22.9304 29.2251 29.5441 22.6828 29.5441 14.6126C29.5441 6.54226 22.9304 0 14.772 0C6.61367 0 0 6.54226 0 14.6126C0 22.6828 6.61367 29.2251 14.772 29.2251Z" fill="#E6E6E6"/>
<path d="M14.7719 26.7896C21.5706 26.7896 27.082 21.3377 27.082 14.6124C27.082 7.88719 21.5706 2.4353 14.7719 2.4353C7.9733 2.4353 2.46191 7.88719 2.46191 14.6124C2.46191 21.3377 7.9733 26.7896 14.7719 26.7896Z" fill="#00487C"/>
<path d="M54.0001 29.2251C62.1584 29.2251 68.7721 22.6828 68.7721 14.6126C68.7721 6.54226 62.1584 0 54.0001 0C45.8417 0 39.228 6.54226 39.228 14.6126C39.228 22.6828 45.8417 29.2251 54.0001 29.2251Z" fill="#00487C"/>
<path d="M54 26.7896C60.7986 26.7896 66.31 21.3377 66.31 14.6124C66.31 7.88719 60.7986 2.4353 54 2.4353C47.2013 2.4353 41.6899 7.88719 41.6899 14.6124C41.6899 21.3377 47.2013 26.7896 54 26.7896Z" fill="white"/>
<path d="M93.2281 29.2251C101.386 29.2251 108 22.6828 108 14.6126C108 6.54226 101.386 0 93.2281 0C85.0697 0 78.4561 6.54226 78.4561 14.6126C78.4561 22.6828 85.0697 29.2251 93.2281 29.2251Z" fill="#00487C"/>
<path d="M93.228 26.7896C100.027 26.7896 105.538 21.3377 105.538 14.6124C105.538 7.88719 100.027 2.4353 93.228 2.4353C86.4294 2.4353 80.918 7.88719 80.918 14.6124C80.918 21.3377 86.4294 26.7896 93.228 26.7896Z" fill="white"/>
<path d="M13.6302 19.6157L10.0439 15.0545L12.1295 13.4498L13.8275 15.6096L19.5639 9.61963L21.4821 11.4173L13.6302 19.6157Z" fill="white"/>
<path d="M40.9478 17.5924C39.9777 15.2747 39.8202 13.0872 41.1878 11.1441C41.2121 10.4912 41.3687 9.84976 41.6483 9.25786C41.9279 8.66596 42.3249 8.13563 42.8156 7.69835C43.3063 7.26106 43.8809 6.92572 44.5051 6.71222C45.1293 6.49871 45.7905 6.41139 46.4495 6.45544L47.3411 6.51503C48.2616 6.57417 49.1468 6.88846 49.8951 7.42194C50.6435 7.95541 51.225 8.68653 51.573 9.53161C53.2357 13.6108 53.288 19.0323 52.8731 24.8432H40.678C41.4023 22.1257 41.7742 19.5751 40.9478 17.5924Z" fill="#2F2E41"/>
<path d="M25.1991 24.7034L21.9764 23.2714C21.6553 23.1287 21.3689 22.9194 21.1368 22.6576C20.9046 22.3959 20.732 22.0878 20.6307 21.7544C20.5294 21.4209 20.5018 21.0697 20.5497 20.7248C20.5976 20.3798 20.7199 20.049 20.9083 19.7549C21.1167 19.4296 21.4003 19.158 21.7356 18.9625C22.071 18.767 22.4486 18.6531 22.8372 18.6302C23.2258 18.6074 23.6143 18.6763 23.9707 18.8312C24.3271 18.9861 24.6411 19.2226 24.887 19.5212L26.3758 21.3296L33.3169 27.4191L37.9308 24.3733L40.022 27.8804L32.5375 32.3526L25.1991 24.7034Z" fill="#9F616A"/>
<path d="M39.6859 28.9121L37.1416 24.0962L47.0488 19.731L47.1346 20.6522C47.2135 21.4998 47.0671 22.3532 46.7099 23.1276C46.3527 23.9021 45.797 24.5707 45.0981 25.0673L39.6859 28.9121Z" fill="#6C63FF"/>
<path d="M52.5245 19.4432L42.4201 27.7152L41.8394 26.911L44.6268 21.9707L45.9044 21.3963C46.2105 20.1134 45.429 18.3931 44.3945 16.5709L49.2725 15.8816C49.508 17.4466 50.5802 18.639 52.5245 19.4432Z" fill="#9F616A"/>
<path d="M64.7197 76.5433L63.0357 79.0133L49.6211 71.488L51.4794 62.4119L64.7197 76.5433Z" fill="#00487C"/>
<path d="M47.0082 88.3196L44.2788 87.1133L43.582 55.5187L40.9688 38.3427L51.1313 36.447L53.2219 40.9277C58.3594 47.8979 50.87 69.2548 47.0082 88.3196Z" fill="#00487C"/>
<path d="M47.2276 87.8901L47.7876 89.0958C47.8928 89.3224 47.9431 89.5701 47.9345 89.8193C47.9259 90.0685 47.8586 90.3123 47.7379 90.5312C47.6173 90.7501 47.4467 90.9381 47.2396 91.0803C47.0326 91.2225 46.7948 91.3149 46.5453 91.3501L39.1412 92.3965C38.7771 92.4479 38.4066 92.3672 38.098 92.1693C37.7895 91.9714 37.5639 91.6696 37.4628 91.3199C37.3698 90.9979 37.388 90.6544 37.5146 90.3438C37.6411 90.0331 37.8687 89.7731 38.1615 89.6049L44.3817 86.5251L47.2276 87.8901Z" fill="#2F2E41"/>
<path d="M64.3728 76.0765L65.7106 75.9794C65.962 75.9611 66.2142 76.0012 66.4471 76.0964C66.6801 76.1915 66.8874 76.3392 67.0525 76.5276C67.2176 76.716 67.336 76.9399 67.3982 77.1815C67.4604 77.4231 67.4647 77.6758 67.4108 77.9193L65.8113 85.1467C65.7327 85.502 65.5266 85.8172 65.2312 86.0338C64.9358 86.2505 64.5711 86.354 64.2046 86.3253C63.8671 86.2988 63.5482 86.1618 63.2983 85.9359C63.0484 85.7099 62.8818 85.408 62.8248 85.0779L62.0845 78.2363L64.3728 76.0765Z" fill="#2F2E41"/>
<path d="M46.1369 18.1794C48.7027 18.1794 50.7827 16.1219 50.7827 13.5839C50.7827 11.0458 48.7027 8.98828 46.1369 8.98828C43.5712 8.98828 41.4912 11.0458 41.4912 13.5839C41.4912 16.1219 43.5712 18.1794 46.1369 18.1794Z" fill="#9F616A"/>
<path d="M50.8988 37.1361L40.7943 39.2041L40.562 32.5405C39.0989 31.0082 42.5113 24.8712 43.6979 21.9707L45.2077 21.5111L42.6526 26.1067L51.5956 18.8687L53.3378 19.3282L53.8023 27.7151L50.8988 37.1361Z" fill="#6C63FF"/>
<path d="M51.5955 41.1574L49.4042 43.8987C49.1859 44.1719 48.9108 44.3954 48.5975 44.5542C48.2842 44.7129 47.94 44.8032 47.5884 44.8189C47.2367 44.8345 46.8858 44.7752 46.5593 44.645C46.2328 44.5148 45.9385 44.3166 45.6962 44.064C45.4283 43.7846 45.2313 43.4463 45.1216 43.0768C45.0118 42.7073 44.9925 42.3174 45.065 41.939C45.1376 41.5607 45.3001 41.2049 45.539 40.9009C45.7779 40.5969 46.0865 40.3534 46.4393 40.1905L48.5758 39.2043L56.2412 34.0343L54.3829 28.8642L58.3318 27.7153L60.887 35.9874L51.5955 41.1574Z" fill="#9F616A"/>
<path d="M52.0018 23.924H43.5849C43.9011 22.3503 44.749 20.9225 47.0677 19.8988C48.7585 16.7023 49.4808 13.8029 47.0677 11.8656C44.3114 11.2375 43.2439 10.0969 43.5849 8.52883L48.5189 7.72461C52.5766 11.2993 52.623 17.4014 52.0018 23.924Z" fill="#2F2E41"/>
<path d="M59.2609 28.2897L53.9183 29.5535L52.0601 18.9836L52.984 19.1265C53.8343 19.2579 54.635 19.6068 55.3069 20.1387C55.9788 20.6706 56.4985 21.367 56.8144 22.1588L59.2609 28.2897Z" fill="#6C63FF"/>
</g>
<defs>
<clipPath id="clip0">
<rect width="108" height="93" fill="white"/>
</clipPath>
</defs>
</svg>
